<?xml version="1.0" encoding="utf-8"?>
<!-- Generator: Adobe Illustrator 24.0.1, SVG Export Plug-In . SVG Version: 6.00 Build 0)  -->
<svg version="1.1" id="Calque_1" xmlns="http://www.w3.org/2000/svg" xmlns:xlink="http://www.w3.org/1999/xlink" x="0px" y="0px"
	 viewBox="0 0 283.5 283.5" style="enable-background:new 0 0 283.5 283.5;" xml:space="preserve">
<style type="text/css">
	.st0{fill:#F5F5F5;}
	.st1{fill:none;stroke:#020203;stroke-miterlimit:10;}
	.st2{fill:none;stroke:#F5F5F5;stroke-width:15;stroke-miterlimit:10;}
</style>
<g>
	<g>
		<g>
			<path class="st0" d="M78,273.7c37.3,0,74.6,0,111.9,0c5.2,0,10.4,0,15.6,0c4.1,0,7.5-3.4,7.5-7.5c0-27.9,0-55.8,0-83.7
				c0-16.9,0-33.7,0-50.6c0-13.8,0.2-27.1-7.2-39.6c-7.2-12.1-19.3-21.2-33.1-24.2c-7.8-1.7-15.8-1.3-23.8-1.3
				c-19.7,0-40.5-2.4-57.3,10.1C80.2,85.4,72.7,98,70.9,112.1c-0.5,4.1-0.5,8.1-0.5,12.2c0,14.5,0,29.1,0,43.6
				c0,32.1-0.5,64.2,0,96.3c0,0.6,0,1.3,0,1.9c0,9.7,15,9.7,15,0c0-26.2,0-52.5,0-78.7c0-17,0-34,0-51c0-10-1.1-21,2.3-30.5
				c4.1-11.6,14.4-20.3,26.4-23.2c6.7-1.6,14.1-0.9,20.9-0.9c17,0,37.1-3.1,50.8,9.4c7.9,7.2,12.1,17,12.2,27.6c0,3,0,5.9,0,8.9
				c0,15.1,0,30.3,0,45.4c0,18.7,0,37.4,0,56c0,11.7-0.5,23.5,0,35.1c0,0.6,0,1.2,0,1.8c2.5-2.5,5-5,7.5-7.5c-37.3,0-74.6,0-111.9,0
				c-5.2,0-10.4,0-15.6,0C68.3,258.7,68.3,273.7,78,273.7z"/>
		</g>
	</g>
	<path class="st1" d="M127.1,73.5"/>
	<g>
		<g>
			<path class="st0" d="M166.1,44.5c-16.6,0-33.2,0-49.9,0c2.5,2.5,5,5,7.5,7.5c0-11.6,0-23.1,0-34.7c-2.5,2.5-5,5-7.5,7.5
				c16.6,0,33.2,0,49.9,0c-2.5-2.5-5-5-7.5-7.5c0,11.6,0,23.1,0,34.7c0,9.7,15,9.7,15,0c0-11.6,0-23.1,0-34.7c0-4.1-3.4-7.5-7.5-7.5
				c-16.6,0-33.2,0-49.9,0c-4.1,0-7.5,3.4-7.5,7.5c0,11.6,0,23.1,0,34.7c0,4.1,3.4,7.5,7.5,7.5c16.6,0,33.2,0,49.9,0
				C175.7,59.5,175.8,44.5,166.1,44.5z"/>
		</g>
	</g>
	<g>
		<g>
			<path class="st0" d="M133.1,73.5c0-6.9,0-13.8,0-20.8c-2.5,2.5-5,5-7.5,7.5c10.4,0,20.8,0,31.2,0c-2.5-2.5-5-5-7.5-7.5
				c0,6.9,0,13.8,0,20.8c0,9.7,15,9.7,15,0c0-6.9,0-13.8,0-20.8c0-4.1-3.4-7.5-7.5-7.5c-10.4,0-20.8,0-31.2,0
				c-4.1,0-7.5,3.4-7.5,7.5c0,6.9,0,13.8,0,20.8C118.1,83.1,133.1,83.1,133.1,73.5L133.1,73.5z"/>
		</g>
	</g>
	<ellipse class="st2" cx="141.2" cy="198.9" rx="36.9" ry="21.1"/>
	<g>
		<g>
			<path class="st0" d="M104.2,152.1c24.6,0,49.2,0,73.9,0c9.7,0,9.7-15,0-15c-24.6,0-49.2,0-73.9,0
				C94.6,137.1,94.6,152.1,104.2,152.1L104.2,152.1z"/>
		</g>
	</g>
	<g>
		<g>
			<path class="st0" d="M114.2,129.5c18,0,36,0,54,0c9.7,0,9.7-15,0-15c-18,0-36,0-54,0C104.5,114.5,104.5,129.5,114.2,129.5
				L114.2,129.5z"/>
		</g>
	</g>
</g>
</svg>
