<?xml version="1.0" encoding="utf-8"?>
<!-- Generator: Adobe Illustrator 24.0.1, SVG Export Plug-In . SVG Version: 6.00 Build 0)  -->
<svg version="1.1" id="Calque_1" xmlns="http://www.w3.org/2000/svg" xmlns:xlink="http://www.w3.org/1999/xlink" x="0px" y="0px"
	 viewBox="0 0 1559.1 407.2" style="enable-background:new 0 0 1559.1 407.2;" xml:space="preserve">
<style type="text/css">
	.st0{fill:#FFFFFF;stroke:#000000;stroke-miterlimit:10;}
	.st1{fill:none;stroke:#F5F5F5;stroke-width:15;stroke-miterlimit:10;}
	.st2{fill:none;}
	.st3{fill:#F5F4F5;}
	.st4{fill:#F5F5F5;}
</style>
<path class="st0" d="M37.6,244.2"/>
<g>
	<g>
		<circle class="st1" cx="541.2" cy="244.7" r="51"/>
		
			<ellipse transform="matrix(0.1299 -0.9915 0.9915 0.1299 643.2767 1222.4739)" class="st1" cx="1018.2" cy="244.7" rx="51" ry="51"/>
	</g>
	<g>
		<line class="st2" x1="490.2" y1="244.7" x2="37.6" y2="244.7"/>
		<g>
			<path class="st3" d="M490.2,237.2c-15,0-30,0-45,0c-36,0-72,0-108,0c-43.6,0-87.1,0-130.7,0c-37.7,0-75.4,0-113,0
				c-18.3,0-36.7-0.7-55,0c-0.3,0-0.5,0-0.8,0c-9.7,0-9.7,15,0,15c15,0,30,0,45,0c36,0,72,0,108,0c43.6,0,87.1,0,130.7,0
				c37.7,0,75.4,0,113,0c18.3,0,36.7,0.7,55,0c0.3,0,0.5,0,0.8,0C499.9,252.2,499.9,237.2,490.2,237.2L490.2,237.2z"/>
		</g>
	</g>
	<g>
		<line class="st2" x1="1069.2" y1="244.7" x2="1521.4" y2="244.7"/>
		<g>
			<path class="st4" d="M1069.2,252.2c15,0,30,0,44.9,0c36,0,72,0,107.9,0c43.5,0,87.1,0,130.6,0c37.7,0,75.3,0,113,0
				c18.3,0,36.7,0.7,55,0c0.3,0,0.5,0,0.8,0c9.7,0,9.7-15,0-15c-15,0-30,0-44.9,0c-36,0-72,0-107.9,0c-43.5,0-87.1,0-130.6,0
				c-37.7,0-75.3,0-113,0c-18.3,0-36.7-0.7-55,0c-0.3,0-0.5,0-0.8,0C1059.5,237.2,1059.5,252.2,1069.2,252.2L1069.2,252.2z"/>
		</g>
	</g>
</g>
<g>
	<g>
		<g>
			<path class="st3" d="M846.1,101.8c0,32.3,0,64.5,0,96.8c0,51.5,0,103,0,154.5c0,11.9,0,23.8,0,35.7c2.5-2.5,5-5,7.5-7.5
				c-43.3,0-86.5,0-129.8,0c-6.1,0-12.2,0-18.3,0c2.5,2.5,5,5,7.5,7.5c0-32.3,0-64.5,0-96.8c0-51.5,0-103,0-154.5
				c0-11.9,0-23.8,0-35.7c0-9.7-15-9.7-15,0c0,32.3,0,64.5,0,96.8c0,51.5,0,103,0,154.5c0,11.9,0,23.8,0,35.7c0,4.1,3.4,7.5,7.5,7.5
				c43.3,0,86.5,0,129.8,0c6.1,0,12.2,0,18.3,0c4.1,0,7.5-3.4,7.5-7.5c0-32.3,0-64.5,0-96.8c0-51.5,0-103,0-154.5
				c0-11.9,0-23.8,0-35.7C861.1,92.1,846.1,92.1,846.1,101.8L846.1,101.8z"/>
		</g>
	</g>
</g>
<g>
	<g>
		<g>
			<path class="st3" d="M748.7,332.9c14-35.2,28.1-70.4,42.1-105.6c22.4-56.1,44.7-112.2,67.1-168.3c5.1-12.9,10.3-25.8,15.4-38.7
				c-4.6,0.6-9.1,1.2-13.7,1.8c18.5,25.2,37,50.4,55.6,75.5c2.6,3.6,5.3,7.2,7.9,10.7c2.4,3.3,6.5,4.8,10.3,2.7
				c3.2-1.8,5.1-7,2.7-10.3c-18.5-25.2-37-50.4-55.6-75.5c-2.6-3.6-5.3-7.2-7.9-10.7c-4-5.4-11.2-4.4-13.7,1.8
				c-14,35.2-28.1,70.4-42.1,105.6c-22.4,56.1-44.7,112.2-67.1,168.3c-5.1,12.9-10.3,25.8-15.4,38.7c-1.5,3.8,1.7,8.2,5.2,9.2
				C743.7,339.3,747.2,336.6,748.7,332.9L748.7,332.9z"/>
		</g>
	</g>
</g>
</svg>
