<?xml version="1.0" encoding="utf-8"?>
<!-- Generator: Adobe Illustrator 24.0.1, SVG Export Plug-In . SVG Version: 6.00 Build 0)  -->
<svg version="1.1" id="Calque_1" xmlns="http://www.w3.org/2000/svg" xmlns:xlink="http://www.w3.org/1999/xlink" x="0px" y="0px"
	 viewBox="0 0 1559.1 326" style="enable-background:new 0 0 1559.1 326;" xml:space="preserve">
<style type="text/css">
	.st0{fill:#F5F4F5;}
	.st1{fill:#F5F5F5;}
	.st2{fill:none;stroke:#F5F5F5;stroke-width:15;stroke-miterlimit:10;}
</style>
<path id="Ligne_x5F_gauche" class="st0" d="M490.2,156c-15,0-30,0-45,0c-36,0-72,0-108,0c-43.6,0-87.1,0-130.7,0
	c-37.7,0-75.4,0-113,0c-18.3,0-36.7-0.7-55,0c-0.3,0-0.5,0-0.8,0c-9.7,0-9.7,15,0,15c15,0,30,0,45,0c36,0,72,0,108,0
	c43.6,0,87.1,0,130.7,0c37.7,0,75.4,0,113,0c18.3,0,36.7,0.7,55,0c0.3,0,0.5,0,0.8,0C499.9,171,499.9,156,490.2,156L490.2,156z"/>
<path id="Ligne_x5F_droite" class="st1" d="M1069.2,171c15,0,30,0,44.9,0c36,0,72,0,107.9,0c43.5,0,87.1,0,130.6,0
	c37.7,0,75.3,0,113,0c18.3,0,36.7,0.7,55,0c0.3,0,0.5,0,0.8,0c9.7,0,9.7-15,0-15c-15,0-30,0-44.9,0c-36,0-72,0-107.9,0
	c-43.5,0-87.1,0-130.6,0c-37.7,0-75.3,0-113,0c-18.3,0-36.7-0.7-55,0c-0.3,0-0.5,0-0.8,0C1059.5,156,1059.5,171,1069.2,171
	L1069.2,171z"/>
<g id="B">
	<circle class="st2" cx="541.2" cy="163.5" r="51"/>
	
		<ellipse transform="matrix(0.1602 -0.9871 0.9871 0.1602 693.7136 1142.3627)" class="st2" cx="1018.2" cy="163.5" rx="51" ry="51"/>
	<g>
		<path class="st1" d="M810.4,161.7c1.1,0.9,2.6,2.1,4.2,3.1c13.1,8.6,22,20.1,25.8,35.5c4.3,17.5,0.7,33.3-9.6,47.6
			c-9.5,13.4-22.9,21.3-38.9,24.8c-4,0.9-8.2,1.1-12.5,1.2c-20.1,0.1-40.2,0-60.3,0c-3.6,0-6.5-2.9-6.5-6.5V95.9
			c0-5.9,0-5.9,5.7-5.9c23.1,0,46.2,0,69.3,0c5.2,0,5.3,0.1,5.3,5.3c-0.1,12.5,1.7,10.6-10.4,10.6c-16.4,0.1-32.8,0-49.2,0
			c-5.2,0-5.2,0-5.2,5.1c0,43.1,0,86.3-0.1,129.4c0,4.3,0,8.7-0.2,13c-0.1,2.4,0.4,3.6,3.2,3.6c17.9-0.1,35.9,1,53.7-0.3
			c20.3-1.5,37.1-16.3,40.5-37.4c3.4-21.4-12.4-39.5-26.6-44.4c-4.3-1.5-8.7-2.7-13.2-4c-0.8-0.2-1.8-0.1-2.4-0.5
			c-3.9-3.5-1.5-8.1-2-12.3c-0.2-2.4,1.4-3.6,3.9-4.3c7.8-2.3,15.3-5.4,21.4-11.1c8.1-7.4,13-16.5,13.8-27.5
			c0.9-13.3-3.4-24.9-13.3-33.9c-8-7.4-17.6-12.3-28.8-12.5c-27.9-0.4-55.9-0.6-83.7-1.1c-4.5-0.1-3.7,2.4-3.7,5
			c0,59.3,0,118.6,0,178c0,5.8,0,11.7,0,17.5c-0.1,4.1-1.3,5.4-5.3,5.4c-11.9,0.5-10.7,0.1-10.7-9.8c0-68,0.1-136,0-204
			c0-7,1.1-7.8,8-7.8c30.3,0.1,60.6,0,90.9,0c17.8,0,33.3,6,45.7,18.6c10.9,11.1,17.2,24.4,17.4,40.6c0.1,12.6-3.2,23.8-10.4,33.7
			C821.7,151.1,815.9,156.1,810.4,161.7z"/>
		<path class="st1" d="M879.8,110.2c-0.2,17.7-4.7,34.2-14,49.2c-1,1.6-1,2.6,0.2,4.2c7,9.1,12.4,19,15.3,30.1
			c7,26.3,2.4,50.6-13,72.9c-0.8,1.1-1.5,2.2-2.3,3.3c-2,2.9-4.6,4.6-8.4,4.2c-2.3-0.3-4.7-0.2-7,0c-2.2,0.1-4.4-0.4-4.9-2.5
			c-0.3-1.4,0.6-3.6,1.7-4.8c7.2-7.8,12.7-16.5,16.4-26.4c8.6-23,4.7-44.4-9-64.2c-2.3-3.2-5.2-6-7.8-9c-3.3-3.7-3.4-4.7-0.1-9
			c7.1-9.5,11.8-20,14.6-31.6c3.6-14.6,2.3-29-2.8-42.9c-2.9-8-7.4-15.4-11.2-23c-0.7-1.3-1.7-2.5-2-3.9c-0.7-2.9,0.5-4.3,3.5-4.6
			c1.3-0.1,2.7,0.2,4-0.1c6.9-1.3,10.5,2.2,13.5,8c5.3,10.3,9.4,20.9,11.6,32.2C879.2,98.2,879.3,104.2,879.8,110.2z"/>
	</g>
</g>
</svg>
