<?xml version="1.0" encoding="utf-8"?>
<!-- Generator: Adobe Illustrator 24.0.1, SVG Export Plug-In . SVG Version: 6.00 Build 0)  -->
<svg version="1.1" id="Calque_1" xmlns="http://www.w3.org/2000/svg" xmlns:xlink="http://www.w3.org/1999/xlink" x="0px" y="0px"
	 viewBox="0 0 1559.1 326" style="enable-background:new 0 0 1559.1 326;" xml:space="preserve">
<style type="text/css">
	.st0{fill:#FFFFFF;stroke:#000000;stroke-miterlimit:10;}
	.st1{fill:none;stroke:#F5F5F5;stroke-width:15;stroke-miterlimit:10;}
	.st2{fill:#F5F5F5;}
	.st3{fill:#F5F4F5;}
	.st4{fill:#010202;}
</style>
<path class="st0" d="M37.6,163"/>
<g>
	<g>
		<circle class="st1" cx="541.2" cy="163.5" r="51"/>
		<circle class="st1" cx="1018.2" cy="163.5" r="51"/>
		<g>
			<g>
				<g>
					<path class="st2" d="M837.4,298.5c-33.8,0-67.6,0-101.3,0c-4.8,0-9.7,0-14.5,0c1.3,4.7,2.5,9.3,3.8,14
						c19.3-13.2,38.5-26.5,57.8-39.7c-2.5,0-5,0-7.6,0c19.4,13.2,38.7,26.5,58.1,39.7c8,5.5,15.5-7.5,7.6-13
						c-19.4-13.2-38.7-26.5-58.1-39.7c-2.1-1.4-5.5-1.4-7.6,0c-19.3,13.2-38.5,26.5-57.8,39.7c-5.9,4.1-4,14,3.8,14
						c33.8,0,67.6,0,101.3,0c4.8,0,9.7,0,14.5,0C847.1,313.5,847.1,298.5,837.4,298.5z"/>
				</g>
			</g>
			<g>
				<g>
					<path class="st2" d="M914.5,12.1c-30.4,0-60.8,0-91.2,0c-48.5,0-96.9,0-145.4,0c-11.1,0-22.3,0-33.4,0c-6.5,0-9.9,8.2-5.3,12.8
						C654.3,40,669.3,55,684.4,70.1c24.1,24.1,48.3,48.3,72.4,72.4c5.5,5.5,11,11,16.5,16.5c2.9,2.9,7.7,2.9,10.6,0
						c15.3-15.1,30.6-30.2,45.9-45.3c24.4-24.1,48.8-48.2,73.2-72.2c5.6-5.5,11.2-11,16.8-16.6c6.9-6.8-3.7-17.4-10.6-10.6
						c-15.3,15.1-30.6,30.2-45.9,45.3c-24.4,24.1-48.8,48.2-73.2,72.2c-5.6,5.5-11.2,11-16.8,16.6c3.5,0,7.1,0,10.6,0
						c-15.1-15.1-30.1-30.1-45.2-45.2c-24.1-24.1-48.3-48.3-72.4-72.4c-5.5-5.5-11-11-16.5-16.5c-1.8,4.3-3.5,8.5-5.3,12.8
						c30.4,0,60.8,0,91.2,0c48.5,0,96.9,0,145.4,0c11.1,0,22.3,0,33.4,0C924.1,27.1,924.1,12.1,914.5,12.1z"/>
				</g>
			</g>
			<line class="st1" x1="779.5" y1="153.7" x2="779.5" y2="266.2"/>
		</g>
	</g>
	<g>
		<line class="st3" x1="490.2" y1="163.5" x2="37.6" y2="163.5"/>
		<g>
			<path class="st3" d="M490.2,156c-15,0-30,0-45,0c-36,0-72,0-108,0c-43.6,0-87.1,0-130.7,0c-37.7,0-75.4,0-113,0
				c-18.3,0-36.7-0.7-55,0c-0.3,0-0.5,0-0.8,0c-9.7,0-9.7,15,0,15c15,0,30,0,45,0c36,0,72,0,108,0c43.6,0,87.1,0,130.7,0
				c37.7,0,75.4,0,113,0c18.3,0,36.7,0.7,55,0c0.3,0,0.5,0,0.8,0C499.9,171,499.9,156,490.2,156L490.2,156z"/>
		</g>
	</g>
	<g>
		<line class="st4" x1="1069.2" y1="163.5" x2="1521.4" y2="163.5"/>
		<g>
			<path class="st2" d="M1069.2,171c15,0,30,0,44.9,0c36,0,72,0,107.9,0c43.5,0,87.1,0,130.6,0c37.7,0,75.3,0,113,0
				c18.3,0,36.7,0.7,55,0c0.3,0,0.5,0,0.8,0c9.7,0,9.7-15,0-15c-15,0-30,0-44.9,0c-36,0-72,0-107.9,0c-43.5,0-87.1,0-130.6,0
				c-37.7,0-75.3,0-113,0c-18.3,0-36.7-0.7-55,0c-0.3,0-0.5,0-0.8,0C1059.5,156,1059.5,171,1069.2,171L1069.2,171z"/>
		</g>
	</g>
</g>
</svg>
