<?xml version="1.0" encoding="utf-8"?>
<!-- Generator: Adobe Illustrator 24.0.1, SVG Export Plug-In . SVG Version: 6.00 Build 0)  -->
<svg version="1.1" id="Calque_1" xmlns="http://www.w3.org/2000/svg" xmlns:xlink="http://www.w3.org/1999/xlink" x="0px" y="0px"
	 viewBox="0 0 283.5 283.5" style="enable-background:new 0 0 283.5 283.5;" xml:space="preserve">
<style type="text/css">
	.st0{fill:#FFFFFF;}
	.st1{fill:#F5F4F5;}
</style>
<g>
	<line class="st0" x1="65.8" y1="65.8" x2="217.7" y2="217.7"/>
	<g>
		<path class="st1" d="M57.9,73.8C75,90.9,92.1,108,109.1,125.1c27.3,27.3,54.5,54.5,81.8,81.8c6.3,6.3,12.5,12.5,18.8,18.8
			c10.3,10.3,26.2-5.7,15.9-15.9c-17.1-17.1-34.2-34.2-51.3-51.3c-27.3-27.3-54.5-54.5-81.8-81.8C86.3,70.4,80,64.1,73.8,57.9
			C63.5,47.6,47.6,63.5,57.9,73.8L57.9,73.8z"/>
	</g>
</g>
<g>
	<line class="st0" x1="217.7" y1="65.8" x2="65.8" y2="217.7"/>
	<g>
		<path class="st1" d="M209.7,57.9c-17.1,17.1-34.2,34.2-51.3,51.3c-27.3,27.3-54.5,54.5-81.8,81.8c-6.3,6.3-12.5,12.5-18.8,18.8
			c-10.3,10.3,5.7,26.2,15.9,15.9c17.1-17.1,34.2-34.2,51.3-51.3c27.3-27.3,54.5-54.5,81.8-81.8c6.3-6.3,12.5-12.5,18.8-18.8
			C235.9,63.5,220,47.6,209.7,57.9L209.7,57.9z"/>
	</g>
</g>
</svg>
