<?xml version="1.0" encoding="utf-8"?>
<!-- Generator: Adobe Illustrator 24.0.1, SVG Export Plug-In . SVG Version: 6.00 Build 0)  -->
<svg version="1.1" id="Calque_1" xmlns="http://www.w3.org/2000/svg" xmlns:xlink="http://www.w3.org/1999/xlink" x="0px" y="0px"
	 viewBox="0 0 326 425.2" style="enable-background:new 0 0 326 425.2;" xml:space="preserve">
<style type="text/css">
	.st0{fill:#F5F5F5;}
	.st1{fill:none;stroke:#F5F5F5;stroke-width:15;stroke-miterlimit:10;}
	.st2{display:none;}
	.st3{display:inline;}
	.st4{fill:#F5F4F5;}
</style>
<g>
	<g>
		<g>
			<path class="st0" d="M220.8,348.1c-33.8,0-67.6,0-101.3,0c-4.8,0-9.7,0-14.5,0c1.3,4.7,2.5,9.3,3.8,14
				c19.3-13.2,38.5-26.5,57.8-39.7c-2.5,0-5,0-7.6,0c19.4,13.2,38.7,26.5,58.1,39.7c8,5.5,15.5-7.5,7.6-13
				c-19.4-13.2-38.7-26.5-58.1-39.7c-2.1-1.4-5.5-1.4-7.6,0c-19.3,13.2-38.5,26.5-57.8,39.7c-5.9,4.1-4,14,3.8,14
				c33.8,0,67.6,0,101.3,0c4.8,0,9.7,0,14.5,0C230.5,363.1,230.5,348.1,220.8,348.1z"/>
		</g>
	</g>
	<g>
		<g>
			<path class="st0" d="M297.9,61.7c-30.4,0-60.8,0-91.2,0c-48.5,0-96.9,0-145.4,0c-11.1,0-22.3,0-33.4,0c-6.5,0-9.9,8.2-5.3,12.8
				c15.1,15.1,30.1,30.1,45.2,45.2c24.1,24.1,48.3,48.3,72.4,72.4c5.5,5.5,11,11,16.5,16.5c2.9,2.9,7.7,2.9,10.6,0
				c15.3-15.1,30.6-30.2,45.9-45.3c24.4-24.1,48.8-48.2,73.2-72.2c5.6-5.5,11.2-11,16.8-16.6c6.9-6.8-3.7-17.4-10.6-10.6
				C277.3,79,262,94.1,246.7,109.2c-24.4,24.1-48.8,48.2-73.2,72.2c-5.6,5.5-11.2,11-16.8,16.6c3.5,0,7.1,0,10.6,0
				c-15.1-15.1-30.1-30.1-45.2-45.2C98,128.7,73.8,104.5,49.7,80.4c-5.5-5.5-11-11-16.5-16.5c-1.8,4.3-3.5,8.5-5.3,12.8
				c30.4,0,60.8,0,91.2,0c48.5,0,96.9,0,145.4,0c11.1,0,22.3,0,33.4,0C307.5,76.7,307.5,61.7,297.9,61.7z"/>
		</g>
	</g>
	<line class="st1" x1="162.9" y1="203.3" x2="162.9" y2="315.8"/>
</g>
<g class="st2">
	<g class="st3">
		<g>
			<path class="st4" d="M190.8,110.8c0,32.3,0,64.5,0,96.8c0,51.5,0,103,0,154.5c0,11.9,0,23.8,0,35.7c2.5-2.5,5-5,7.5-7.5
				c-43.3,0-86.5,0-129.8,0c-6.1,0-12.2,0-18.3,0c2.5,2.5,5,5,7.5,7.5c0-32.3,0-64.5,0-96.8c0-51.5,0-103,0-154.5
				c0-11.9,0-23.8,0-35.7c0-9.7-15-9.7-15,0c0,32.3,0,64.5,0,96.8c0,51.5,0,103,0,154.5c0,11.9,0,23.8,0,35.7c0,4.1,3.4,7.5,7.5,7.5
				c43.3,0,86.5,0,129.8,0c6.1,0,12.2,0,18.3,0c4.1,0,7.5-3.4,7.5-7.5c0-32.3,0-64.5,0-96.8c0-51.5,0-103,0-154.5
				c0-11.9,0-23.8,0-35.7C205.8,101.1,190.8,101.1,190.8,110.8L190.8,110.8z"/>
		</g>
	</g>
	<g class="st3">
		<g>
			<path class="st4" d="M94.8,341.9c14-35.2,28.1-70.4,42.1-105.6C159.3,180.2,181.6,124.1,204,68c5.1-12.9,10.3-25.8,15.4-38.7
				c-4.6,0.6-9.1,1.2-13.7,1.8c18.5,25.2,37,50.4,55.6,75.5c2.6,3.6,5.3,7.2,7.9,10.7c2.4,3.3,6.5,4.8,10.3,2.7
				c3.2-1.8,5.1-7,2.7-10.3c-18.5-25.2-37-50.4-55.6-75.5c-2.6-3.6-5.3-7.2-7.9-10.7c-4-5.4-11.2-4.4-13.7,1.8
				c-14,35.2-28.1,70.4-42.1,105.6c-22.4,56.1-44.7,112.2-67.1,168.3c-5.1,12.9-10.3,25.8-15.4,38.7c-1.5,3.8,1.7,8.2,5.2,9.2
				C89.8,348.3,93.3,345.6,94.8,341.9L94.8,341.9z"/>
		</g>
	</g>
</g>
</svg>
