<?xml version="1.0" encoding="utf-8"?>
<!-- Generator: Adobe Illustrator 24.0.1, SVG Export Plug-In . SVG Version: 6.00 Build 0)  -->
<svg version="1.1" id="Calque_1" xmlns="http://www.w3.org/2000/svg" xmlns:xlink="http://www.w3.org/1999/xlink" x="0px" y="0px"
	 viewBox="0 0 326 425.2" style="enable-background:new 0 0 326 425.2;" xml:space="preserve">
<style type="text/css">
	.st0{fill:#F5F4F5;}
</style>
<g>
	<g>
		<g>
			<path class="st0" d="M86.7,48.5c34.2,0,68.5,0,102.7,0c15.8,0,31.6,0,47.4,0c4.3,0,7.9,1,8.3,6.2c0.2,2.3,0,4.7,0,7
				c0,33.1,0,66.2,0,99.3c0,45.3,0,90.6,0,135.9c0,17,0,34,0,51.1c0,7.5,0.5,15.1,0,22.6c-0.4,5.2-4.2,6.1-8.4,6.1
				c-6.1,0-12.2,0-18.3,0c-21.6,0-43.2,0-64.8,0c-19.1,0-38.2,0-57.4,0c-3.2,0-6.7,0.4-9.9,0c-5-0.7-5.4-4.7-5.4-8.7
				c0-29.2,0-58.3,0-87.5c0-45.7,0-91.4,0-137.1c0-28.8,0-57.6,0-86.4C80.9,53,81.7,48.8,86.7,48.5c9.6-0.5,9.7-15.5,0-15
				c-12.2,0.6-20.6,9.8-20.8,21.9c0,3.1,0,6.2,0,9.2c0,14.5,0,29.1,0,43.6c0,45.9,0,91.7,0,137.6c0,37.3,0,74.6,0,111.9
				c0,11.6-1.4,24.5,10.7,31.3c5.4,3,11.1,2.6,17,2.6c7.9,0,15.7,0,23.6,0c39.8,0,79.7,0,119.5,0c10.6,0,20.3-5.2,22.9-16.2
				c0.7-3,0.5-6.1,0.5-9.2c0-12,0-24,0-36.1c0-44.3,0-88.7,0-133c0-40.3,0-80.7,0-121c0-7.2,0.3-14.5,0-21.7
				c-0.5-12.3-9.8-20.8-22-21c-5.3-0.1-10.6,0-16,0c-41.9,0-83.8,0-125.7,0c-3.3,0-6.5,0-9.8,0C77,33.5,77,48.5,86.7,48.5z"/>
		</g>
	</g>
	<g>
		<g>
			<path class="st0" d="M132.1,72c20.6,0,41.2,0,61.8,0c9.7,0,9.7-15,0-15c-20.6,0-41.2,0-61.8,0C122.5,57,122.4,72,132.1,72
				L132.1,72z"/>
		</g>
	</g>
</g>
</svg>
