<?xml version="1.0" encoding="utf-8"?>
<!-- Generator: Adobe Illustrator 24.0.1, SVG Export Plug-In . SVG Version: 6.00 Build 0)  -->
<svg version="1.1" id="Calque_1" xmlns="http://www.w3.org/2000/svg" xmlns:xlink="http://www.w3.org/1999/xlink" x="0px" y="0px"
	 viewBox="0 0 283.5 283.5" style="enable-background:new 0 0 283.5 283.5;" xml:space="preserve">
<style type="text/css">
	.st0{fill:#F5F4F5;}
</style>
<g>
	<g>
		<path class="st0" d="M95.8,73.8c22.1,22.1,44.2,44.2,66.3,66.3c3.2,3.2,6.4,6.4,9.6,9.6c0-5.3,0-10.6,0-15.9
			c-22.1,22.1-44.2,44.2-66.3,66.3c-3.2,3.2-6.4,6.4-9.6,9.6c-10.3,10.3,5.7,26.2,15.9,15.9c22.1-22.1,44.2-44.2,66.3-66.3
			c3.2-3.2,6.4-6.4,9.6-9.6c4.3-4.3,4.3-11.6,0-15.9c-22.1-22.1-44.2-44.2-66.3-66.3c-3.2-3.2-6.4-6.4-9.6-9.6
			C101.5,47.6,85.6,63.5,95.8,73.8L95.8,73.8z"/>
	</g>
</g>
</svg>
