<?xml version="1.0" encoding="utf-8"?>
<!-- Generator: Adobe Illustrator 24.0.1, SVG Export Plug-In . SVG Version: 6.00 Build 0)  -->
<svg version="1.1" id="Calque_1" xmlns="http://www.w3.org/2000/svg" xmlns:xlink="http://www.w3.org/1999/xlink" x="0px" y="0px"
	 viewBox="0 0 283.7 283.7" style="enable-background:new 0 0 283.7 283.7;" xml:space="preserve">
<style type="text/css">
	.st0{fill:#F5F4F5;}
</style>
<g>
	<g>
		<g>
			<path class="st0" d="M199.6,21.8c-33.6,0-67.3,0-100.9,0c-4.8,0-9.6,0-14.4,0c-4.8,0-8.7,4.8-7.2,9.5
				c8.2,26.8,16.5,53.7,24.7,80.5c1.2,3.8,2.3,7.6,3.5,11.5c1,3.2,3.9,5.5,7.2,5.5c19.6,0,39.3,0,58.9,0c3.4,0,6.3-2.3,7.2-5.5
				c8.2-26.8,16.5-53.7,24.7-80.5c1.2-3.8,2.3-7.6,3.5-11.5c2.8-9.2-11.6-13.2-14.5-4c-8.2,26.8-16.5,53.7-24.7,80.5
				c-1.2,3.8-2.3,7.6-3.5,11.5c2.4-1.8,4.8-3.7,7.2-5.5c-19.6,0-39.3,0-58.9,0c2.4,1.8,4.8,3.7,7.2,5.5
				c-8.2-26.8-16.5-53.7-24.7-80.5c-1.2-3.8-2.3-7.6-3.5-11.5c-2.4,3.2-4.8,6.3-7.2,9.5c33.6,0,67.3,0,100.9,0c4.8,0,9.6,0,14.4,0
				C209.2,36.8,209.2,21.8,199.6,21.8z"/>
		</g>
	</g>
	<g>
		<g>
			<path class="st0" d="M199.6,247c-33.6,0-67.3,0-100.9,0c-4.8,0-9.6,0-14.4,0c2.4,3.2,4.8,6.3,7.2,9.5
				c8.2-38.9,16.5-77.9,24.7-116.8c1.2-5.5,2.3-11,3.5-16.4c-2.4,1.8-4.8,3.7-7.2,5.5c19.6,0,39.3,0,58.9,0
				c-2.4-1.8-4.8-3.7-7.2-5.5c8.2,38.9,16.5,77.9,24.7,116.8c1.2,5.5,2.3,11,3.5,16.4c2,9.4,16.5,5.4,14.5-4
				c-8.2-38.9-16.5-77.9-24.7-116.8c-1.2-5.5-2.3-11-3.5-16.4c-0.7-3.2-4.1-5.5-7.2-5.5c-19.6,0-39.3,0-58.9,0
				c-3.1,0-6.6,2.3-7.2,5.5c-8.2,38.9-16.5,77.9-24.7,116.8c-1.2,5.5-2.3,11-3.5,16.4c-1,4.7,2.1,9.5,7.2,9.5c33.6,0,67.3,0,100.9,0
				c4.8,0,9.6,0,14.4,0C209.2,262,209.2,247,199.6,247z"/>
		</g>
	</g>
</g>
</svg>
